<svg xmlns="http://www.w3.org/2000/svg" width="1440" height="250" preserveAspectRatio="none"><g mask="url(&quot;#a&quot;)" fill="none"><path d="M32 250 282 0h64.5l-250 250zM239.6 250l250-250h154.5l-250 250zM522.2 250l250-250h102l-250 250zM743.8 250l250-250h102l-250 250z" fill="url(&quot;#b&quot;)"/><path d="M1426 250 1176 0H858l250 250z" fill="url(&quot;#c&quot;)"/><path d="M1193.4 250 943.4 0H815.9l250 250zM926.8 250 676.8 0H411.3l250 250z" fill="url(&quot;#c&quot;)"/><path d="M695.2 250 445.2 0h-85.5l250 250z" fill="url(&quot;#c&quot;)"/><path d="M1292.717 250 1440 102.717V250z" fill="url(&quot;#b&quot;)"/><path d="M0 250h147.283L0 102.717z" fill="url(&quot;#c&quot;)"/></g><defs><linearGradient x1="0%" y1="100%" x2="100%" y2="0%" id="b"><stop stop-color="rgba(66, 42, 213, 0.18)" offset="0"/><stop stop-opacity="0" stop-color="rgba(66, 42, 213, 0.18)" offset=".66"/></linearGradient><linearGradient x1="100%" y1="100%" x2="0%" y2="0%" id="c"><stop stop-color="rgba(66, 42, 213, 0.18)" offset="0"/><stop stop-opacity="0" stop-color="rgba(66, 42, 213, 0.18)" offset=".66"/></linearGradient><mask id="a"><path fill="#fff" d="M0 0h1440v250H0z"/></mask></defs></svg>