<svg
  xmlns="http://www.w3.org/2000/svg"
  viewBox="0 0 500 500"
  style="enable-background: new 0 0 500 500"
  xml:space="preserve"
>
  <g style="opacity: 0.35">
    <path
      style="fill: #c3ecfe"
      d="M446.104 300.171c-7.403-26.557 16.131-27.582 16.648-61.802.212-13.996-7.456-28.25-25.904-34.788-9.066-3.213-18.104-5.422-26.171-10.531-18.383-11.644-18.051-33.798-23.066-52.684-11.014-41.482-97.294-74.461-140.2-73.389-30.93.772-45.199 15.68-73.398 41.934-19.294 17.964-53.289 16.335-43.383 62.748 8.823 41.34-11.992 38.27-31.053 53.532-19.021 15.23-32.95 33.397-25.38 54.016 8.348 22.737-42.751 35.786-51.864 65.259-6.181 19.991 26.288 21.68 48.385 21.68s211.158-1.7 291.125.665c21.523.637 90.194 6.499 99.908-20.332 6.612-18.262-10.477-27.762-15.647-46.308z"
    />
  </g>
  <path
    style="
      fill: none;
      stroke: #c3ecfe;
      stroke-width: 1.393;
      stroke-miterlimit: 10;
    "
    d="M470.648 291.9c-15.981 37.192-46.769 67.546-83.677 84.003"
  />
  <path
    style="fill: #c3ecfe"
    d="M465.957 301.794c5.581-4.645 9.4-11.357 10.543-18.527.28-1.758.337-3.759-.844-5.09-.325-.366-.754-.668-1.241-.718-.784-.079-1.474.497-1.997 1.086-2.776 3.12-3.739 7.434-4.216 11.583-.476 4.148-1.384 7.192-2.245 11.666M458.369 314.464c3.281-6.477 4.125-14.154 2.331-21.19-.44-1.724-1.181-3.585-2.794-4.338-.443-.207-.957-.315-1.424-.167-.751.238-1.156 1.041-1.403 1.789-1.311 3.965-.484 8.308.723 12.305 1.209 3.999 1.583 7.152 2.567 11.601M447.202 330.05c4.048-6.028 5.825-13.543 4.904-20.746-.225-1.765-.734-3.702-2.242-4.647-.415-.26-.912-.429-1.393-.339-.775.144-1.274.892-1.611 1.604-1.786 3.775-1.496 8.186-.786 12.301s.696 7.291 1.128 11.827M434.369 343.707c4.048-6.028 5.825-13.543 4.904-20.746-.226-1.765-.734-3.702-2.242-4.647-.415-.26-.912-.429-1.393-.34-.775.145-1.274.892-1.611 1.604-1.786 3.775-1.496 8.186-.786 12.301.71 4.116.695 7.292 1.128 11.828M415.147 359.468c4.651-5.576 7.196-12.867 7.027-20.126-.042-1.779-.347-3.759-1.749-4.855-.385-.301-.862-.521-1.35-.482-.785.064-1.36.755-1.769 1.429-2.167 3.569-2.336 7.987-2.056 12.154.279 4.166-.064 7.323-.103 11.88M400.087 369.535c4.575-4.965 7.529-11.889 8.155-19.115.153-1.771.102-3.773-.982-5.032-.298-.346-.683-.623-1.105-.644-.679-.033-1.245.583-1.666 1.201-2.235 3.277-2.849 7.641-3.051 11.81-.204 4.172-.833 7.263-1.351 11.78M454.567 320.044c7.365 1.214 15.31-.31 21.932-4.208 1.623-.955 3.305-2.246 3.649-4.046.094-.495.07-1.028-.198-1.437-.433-.658-1.345-.807-2.162-.819-4.328-.065-8.488 2.068-12.202 4.466-3.714 2.398-6.793 3.726-11.019 6.044M445.544 331.837c6.862 2.937 14.941 3.354 22.302 1.15 1.804-.54 3.746-1.392 4.509-3.058.21-.458.314-.982.151-1.443-.263-.743-1.114-1.105-1.904-1.311-4.188-1.096-8.736-.018-12.915 1.424-4.179 1.441-7.486 1.996-12.143 3.238M432.065 345.591c6.136 4.251 13.968 6.275 21.621 5.588 1.876-.168 3.948-.615 5.03-2.094.297-.407.504-.899.436-1.383-.109-.781-.87-1.305-1.603-1.666-3.884-1.912-8.556-1.765-12.939-1.189-4.382.577-7.733.459-12.545.744M413.21 361.474c6.926 2.784 15.012 3.021 22.322.653 1.792-.58 3.714-1.475 4.44-3.158.2-.462.292-.988.118-1.446-.28-.737-1.138-1.079-1.933-1.269-4.211-1.003-8.734.176-12.88 1.711-4.145 1.535-7.439 2.163-12.067 3.509M397.964 370.577c4.931 5.604 12.045 9.455 19.638 10.632 1.861.289 3.98.355 5.386-.821.386-.323.706-.751.757-1.238.082-.784-.53-1.476-1.155-2.003-3.309-2.791-7.879-3.775-12.271-4.271-4.393-.495-7.617-1.417-12.355-2.299"
  />
  <path
    style="fill: #599fd2"
    d="M380.286 213.66a.394.394 0 0 1-.372-.366l-.14-1.989a.394.394 0 0 1 .366-.421.392.392 0 0 1 .421.366l.14 1.989a.394.394 0 0 1-.366.421h-.049z"
  />
  <path
    style="fill: #c3ecfe"
    d="m389.221 304.052-5.257.37-5.849-84.758 2.628-.185 2.629-.184z"
  />
  <path
    style="fill: #c3ecfe"
    d="m380.783 212.441-1.062.075-1.606 7.148 5.257-.369z"
  />
  <path
    style="
      fill: none;
      stroke: #c3ecfe;
      stroke-width: 1.393;
      stroke-miterlimit: 10;
    "
    d="M123.566 233.534c9.348 51.085 44.964 96.633 92.288 118.024"
  />
  <path
    style="fill: #c3ecfe"
    d="M125.933 244.226c-4.405-5.773-6.632-13.167-6.147-20.412.119-1.776.509-3.74 1.958-4.774.398-.284.884-.483 1.37-.423.782.098 1.326.814 1.705 1.504 2.01 3.66 1.988 8.081 1.527 12.231-.461 4.15-.255 7.32-.413 11.874M130.506 258.269c-1.754-7.046-.866-14.718 2.452-21.176.813-1.583 1.951-3.231 3.691-3.606.478-.103 1.003-.093 1.425.155.679.4.894 1.272.969 2.057.394 4.157-1.38 8.206-3.449 11.834-2.069 3.627-3.137 6.618-5.088 10.736M137.916 275.952c-2.602-6.779-2.658-14.501-.155-21.317.613-1.67 1.541-3.445 3.222-4.03.462-.161.985-.215 1.433-.02.723.314 1.043 1.153 1.213 1.923.899 4.078-.367 8.314-1.976 12.167-1.61 3.852-2.304 6.952-3.737 11.277M147.381 292.126c-2.602-6.779-2.659-14.501-.155-21.317.613-1.67 1.541-3.445 3.222-4.03.462-.161.985-.215 1.433-.02.723.314 1.043 1.154 1.213 1.923.899 4.078-.367 8.314-1.976 12.167-1.61 3.853-2.304 6.952-3.737 11.277M162.605 311.776c-3.29-6.473-4.146-14.148-2.362-21.186.437-1.725 1.176-3.586 2.787-4.342.443-.208.957-.316 1.424-.169.751.237 1.157 1.039 1.405 1.787 1.317 3.963.496 8.307-.705 12.306-1.202 3.999-1.571 7.154-2.549 11.604M175.041 324.948c-3.353-5.86-4.689-13.269-3.687-20.452.245-1.76.742-3.7 2.079-4.686.368-.271.805-.455 1.221-.381.67.119 1.083.846 1.356 1.543 1.448 3.693 1.073 8.084.341 12.193-.731 4.11-.807 7.264-1.31 11.783M132.968 264.555c-7.45-.459-14.855-3.716-20.441-8.992-1.369-1.293-2.721-2.926-2.655-4.758.018-.503.16-1.018.514-1.357.569-.545 1.491-.486 2.29-.316 4.234.902 7.813 3.909 10.899 7.074 3.085 3.166 5.79 5.147 9.393 8.349M139.134 278.064c-7.344 1.333-15.313-.062-21.997-3.852-1.638-.929-3.341-2.192-3.714-3.986-.102-.493-.087-1.027.175-1.44.422-.665 1.332-.828 2.148-.854 4.327-.134 8.52 1.93 12.272 4.268 3.753 2.336 6.853 3.614 11.116 5.864M149.207 294.477c-6.929 2.776-15.016 3.003-22.323.626-1.791-.582-3.712-1.479-4.436-3.163-.199-.463-.291-.989-.117-1.446.28-.736 1.139-1.078 1.934-1.266 4.212-.997 8.734.187 12.878 1.726 4.144 1.54 7.437 2.172 12.064 3.523M164.046 314.164c-7.372 1.17-15.308-.403-21.906-4.34-1.617-.965-3.292-2.266-3.624-4.068-.091-.495-.064-1.029.207-1.436.437-.656 1.35-.799 2.167-.806 4.329-.038 8.475 2.119 12.174 4.54 3.699 2.42 6.77 3.766 10.982 6.11M176.879 326.437c-6.056 4.363-13.85 6.532-21.514 5.986-1.878-.134-3.959-.542-5.068-2.001-.305-.401-.52-.89-.462-1.375.095-.782.846-1.321 1.572-1.695 3.848-1.983 8.522-1.923 12.915-1.427 4.392.495 7.741.315 12.557.512"
  />
  <path
    style="
      fill: none;
      stroke: #c3ecfe;
      stroke-width: 1.393;
      stroke-miterlimit: 10;
    "
    d="M31.446 304.867c51.88-2.367 104.264 22.107 135.738 63.417"
  />
  <path
    style="fill: #c3ecfe"
    d="M42.396 304.772c-6.614-2.995-14.32-3.504-21.271-1.405-1.704.515-3.53 1.337-4.212 2.98-.188.452-.273.97-.104 1.43.271.74 1.09 1.109 1.849 1.324 4.018 1.137 8.321.121 12.262-1.26 3.94-1.381 7.074-1.892 11.476-3.069M57.108 306.073c-7.26-.126-14.536 2.462-20.084 7.146-1.36 1.148-2.71 2.627-2.685 4.406.007.489.135.999.471 1.354.542.572 1.441.586 2.222.482 4.139-.55 7.687-3.188 10.757-6.019 3.07-2.831 5.744-4.543 9.319-7.369M76.003 309.322c-7.19-1.013-14.728.667-20.807 4.637-1.49.973-3.011 2.276-3.203 4.045-.053.486.011 1.008.302 1.401.468.634 1.358.757 2.146.75 4.176-.04 8.019-2.225 11.412-4.659 3.393-2.434 6.257-3.806 10.15-6.174M93.89 314.911c-7.19-1.013-14.728.667-20.807 4.637-1.49.973-3.011 2.276-3.204 4.045-.053.486.011 1.008.302 1.401.468.634 1.358.757 2.146.75 4.176-.04 8.019-2.225 11.412-4.659 3.394-2.433 6.258-3.805 10.151-6.174M116.458 325.333c-7.046-1.752-14.717-.862-21.175 2.457-1.583.814-3.231 1.952-3.605 3.691-.103.478-.093 1.004.155 1.425.4.679 1.273.894 2.057.968 4.157.393 8.206-1.382 11.833-3.452 3.627-2.069 6.618-3.137 10.735-5.089M132.087 334.492c-6.463-1.951-13.983-1.588-20.757 1.001-1.66.634-3.439 1.554-4.099 3.079-.181.419-.263.887-.097 1.275.266.626 1.068.865 1.808.975 3.924.581 8.119-.77 11.959-2.407 3.839-1.636 6.895-2.418 11.186-3.923M63.786 307.06c-2.12-7.157-6.958-13.641-13.354-17.899-1.568-1.044-3.463-1.994-5.232-1.518-.486.131-.956.385-1.207.805-.404.677-.139 1.562.206 2.302 1.83 3.923 5.563 6.736 9.341 9.031 3.779 2.296 6.317 4.487 10.246 7.279M78.335 310.034c-.351-7.456-3.501-14.908-8.695-20.569-1.273-1.388-2.887-2.763-4.719-2.723-.503.011-1.02.146-1.364.494-.553.561-.508 1.484-.349 2.285.841 4.247 3.795 7.869 6.915 11 3.12 3.131 5.062 5.864 8.212 9.513M96.591 316.162c1.148-7.376-.447-15.307-4.404-21.893-.97-1.615-2.275-3.285-4.078-3.612-.496-.09-1.029-.061-1.435.211-.655.439-.795 1.352-.8 2.169-.026 4.329 2.144 8.469 4.575 12.161 2.43 3.692 3.786 6.759 6.142 10.964M119.108 326.2c-.516-7.446-3.831-14.826-9.15-20.371-1.304-1.359-2.947-2.698-4.778-2.618-.503.022-1.017.168-1.353.524-.541.573-.475 1.495-.299 2.293.935 4.227 3.969 7.783 7.158 10.844 3.19 3.061 5.192 5.751 8.422 9.328M133.95 335.948c2.891-6.882 3.253-14.964 1-22.309-.552-1.8-1.417-3.736-3.088-4.489-.459-.207-.984-.307-1.444-.141-.741.268-1.097 1.121-1.299 1.913-1.068 4.195.04 8.736 1.51 12.905 1.471 4.169 2.048 7.472 3.321 12.121"
  />
  <path
    style="fill: #c3ecfe"
    d="M195.403 326.819c-7.514-7.027-18.129-10.612-28.366-9.578-6.933.7-14.493 4.405-16.019 11.204-.727 3.238-.472 7.534-3.537 8.806-3 1.245-5.897-1.845-8.977-2.878-5.126-1.72-10.976 4.141-9.247 9.264.786 2.329 2.758 4.359 2.594 6.812-.223 3.341-4.352 5.082-7.66 4.563-3.308-.519-6.228-2.45-9.473-3.276-3.245-.826-7.447.002-8.586 3.15-1.021 2.822.741 6.613-1.475 8.637-.949.867-2.323 1.046-3.603 1.167-28.094 2.667-59.035 7.707-55.891 12.698.86 1.364 3.056.93 4.668.905 59.797-.936 114.115-1.828 173.892.006"
  />
  <path
    style="fill: #88d2ff"
    d="m363.544 232.89 17.727 69.512-3.372.86-21.933-68.439"
  />
  <path
    style="fill: #9bdfff"
    d="M347.14 234.476c-9.052 2.308-18.686-4.712-21.476-15.65-2.789-10.938 2.307-21.714 11.359-24.023 9.052-2.308 18.686 4.712 21.475 15.65 2.79 10.938-2.306 21.715-11.358 24.023zm-8.566-33.59c-5.698 1.453-8.762 8.806-6.828 16.39s8.144 12.572 13.842 11.118c5.698-1.453 8.761-8.806 6.827-16.39-1.933-7.584-8.143-12.571-13.841-11.118z"
  />
  <path
    style="fill: #c0edff"
    d="m356.46 215.158 5.39 21.136a1.987 1.987 0 0 1-3.85.982l-.609-2.388s-2.83-6.037-10.655-3.548c0 0 9.333-1.166 9.65-1.143.317.024-.22-16.192.074-15.039z"
  />
  <path
    style="fill: #9bdfff"
    d="M361.191 241.751a5.13 5.13 0 0 1-6.232-3.699s-.323-1.663-.97-2.582c-1.014-1.439-3.081-1.98-6.864-1.015l-.957-5.343c1.988-.637 3.418-1.595 5.017-1.483.857-.105 1.569-.19 2.165-.26a526.456 526.456 0 0 0-.063-5.449c-.025-1.759 2.257-3.735 2.251-4.998-.009-2.266-2.332-4.555.48-4.931l2.766-.368 6.107 23.898a5.129 5.129 0 0 1-3.7 6.23z"
  />
  <path
    style="fill: #88d2ff"
    d="m366.154 232.26.052 71.737 3.48-.003 4.288-71.74"
  />
  <path
    style="fill: #9bdfff"
    d="M365.482 209.273c-.008-11.288 7.586-20.477 16.927-20.483 9.342-.007 16.949 9.171 16.957 20.459.008 11.288-7.586 20.477-16.927 20.484-9.341.005-16.949-9.172-16.957-20.46zm6.277-.005c.006 7.827 4.796 14.191 10.676 14.187 5.88-.004 10.661-6.376 10.655-14.202-.006-7.827-4.796-14.191-10.676-14.186-5.88.003-10.661 6.374-10.655 14.201z"
  />
  <path
    style="fill: #c0edff"
    d="m368.623 213.326.016 21.812a1.987 1.987 0 0 0 3.973-.003l-.002-2.464s1.246-6.55 9.444-6.078c0 0-9.331 1.183-9.633 1.284-.301.102-3.799-15.741-3.798-14.551z"
  />
  <path
    style="fill: #9bdfff"
    d="M370.629 240.262a5.13 5.13 0 0 0 5.121-5.128s-.099-1.692.3-2.742c.625-1.645 2.495-2.682 6.398-2.685l-.396-5.414c-2.084-.124-3.707-.699-5.229-.194-.856.111-1.567.204-2.162.285a526.391 526.391 0 0 1-1.289-5.295c-.412-1.71-3.112-3.059-3.419-4.284-.553-2.197 1.13-4.991-1.687-4.658l-2.771.329.006 24.666a5.13 5.13 0 0 0 5.128 5.12z"
  />
  <path
    style="fill: #88d2ff"
    d="m396.354 291.306-9.022-1.629 14.014-77.596a1.17 1.17 0 0 1 1.359-.943l6.72 1.214a1.17 1.17 0 0 1 .943 1.359l-14.014 77.595z"
  />
  <path
    style="fill: #fe7d90"
    d="m409.021 221.168-9.022-1.629 1.347-7.457a1.17 1.17 0 0 1 1.359-.943l6.72 1.214a1.17 1.17 0 0 1 .943 1.359l-1.347 7.456z"
  />
  <g style="opacity: 0.5">
    <path
      transform="rotate(-79.764 404.257 221.708)"
      style="fill: #599fd2"
      d="M402.897 217.127h2.745v9.169h-2.745z"
    />
  </g>
  <path
    transform="rotate(21.513 411.745 266.353)"
    style="fill: #c3ecfe"
    d="M403.844 223.558h15.826v85.622h-15.826z"
  />
  <path
    style="
      fill: none;
      stroke: #ccf3ff;
      stroke-width: 1.393;
      stroke-miterlimit: 10;
    "
    d="m428.943 230.119 4.853 1.913M427.313 234.257l4.852 1.912M425.682 238.394l4.852 1.913M421.677 241.596l7.227 2.849M422.42 246.669l4.853 1.913M420.789 250.807l4.853 1.913M419.158 254.945l4.853 1.912M415.154 258.147l7.226 2.848M415.897 263.22l4.852 1.913M414.266 267.358l4.853 1.912M412.635 271.495l4.853 1.913M408.63 274.697l7.227 2.849M409.374 279.77l4.852 1.913M407.743 283.908l4.852 1.913M406.112 288.046l4.852 1.912M402.107 291.248l7.226 2.848M402.85 296.321l4.853 1.912M401.219 300.458l4.853 1.913M399.588 304.596l4.853 1.913"
  />
  <path
    style="fill: #9bdfff"
    d="M414.181 381.822h-73.418l-12.331-111.064a2.384 2.384 0 0 1 2.37-2.647h93.342a2.383 2.383 0 0 1 2.369 2.647l-12.332 111.064z"
  />
  <path
    style="fill: #ccf3ff"
    d="m322.117 386.662 132.664 1.807c1.484.02 6.161-1.427-1.899-6.625-6.827-4.402-28.404-.442-28.404-.442s5.023-2.014 4.999-4.612c-.023-2.599-1.993-4.883-4.358-5.961-2.365-1.078-5.058-1.156-7.653-1.008a48.772 48.772 0 0 0-15.414 3.449c2.081-1.28 2.716-4.418 1.296-6.406-1.42-1.988-4.595-2.405-6.48-.852 3.314-4.488 8.438-24.379-7.309-33.146-19.738-10.988-34.728-1.946-37.926 4.667-1.622-6.491-9.07-11.406-13.975-12.624-11.187-2.778-18.475-1.954-28.919 2.923-3.695 1.725-8.642 7.618-11.098 10.873-3.847 5.098-4.447 11.878-4.658 18.261a250.633 250.633 0 0 0-.065 14.378"
  />
  <path
    style="opacity: 0.4; fill: #a1d7e5"
    d="M347.958 393.731c0 2.292-44.539 4.151-99.481 4.151s-99.481-1.858-99.481-4.151c0-2.293 44.539-4.151 99.481-4.151s99.481 1.859 99.481 4.151z"
  />
  <path
    style="fill: #e8505b"
    d="M250.371 104.175c-5.514 0-9.983 4.47-9.983 9.983v12.795h19.967v-12.795c0-5.513-4.47-9.983-9.984-9.983zm0 15.713a5.601 5.601 0 1 1 0-11.203 5.601 5.601 0 0 1 0 11.203z"
  />
  <g style="opacity: 0.45">
    <path
      style="fill: #b03d44"
      d="M255.973 114.287a5.601 5.601 0 0 0-5.601-5.601c-.288 0-.565.043-.841.085.841-.325.883-.544 2.273-.544a5.601 5.601 0 0 1 5.601 5.601c0 2.805-1.431 4.325-3.593 4.88 1.199-1.028 2.161-2.717 2.161-4.421zm-12.535 11.389v-12.795c0-3.473 1.507-6.528 4.197-8.317-4.182 1.191-7.247 5.031-7.247 9.594v12.795h19.967v-1.277h-16.917z"
    />
  </g>
  <path
    style="fill: #3e89cc"
    d="M332.823 393.685H164.131c-5.38 0-9.742-4.362-9.742-9.742V137.367c0-5.38 4.361-9.742 9.742-9.742h168.691c5.38 0 9.742 4.361 9.742 9.742v246.576c0 5.381-4.361 9.742-9.741 9.742z"
  />
  <path style="fill: #c3ecfe" d="M165.296 138.061h166.361v245.19H165.296z" />
  <path style="fill: #fff" d="M171.693 145.551h153.568v230.208H171.693z" />
  <path
    style="fill: #e8505b"
    d="M309 132.03v10H187.95v-10a7.023 7.023 0 0 1 7.02-7.02h107.01c3.88 0 7.02 3.14 7.02 7.02z"
  />
  <path
    style="opacity: 0.45; fill: #b03d44"
    d="M309 139.53v2.5H187.95v-7.24c0-1.94.11-3.54.32-4.85a7.023 7.023 0 0 1 6.7-4.93h.86c-1.85 1.78-3.2 4.5-3.2 7.28v7.24H309z"
  />
  <g style="opacity: 0.15">
    <path
      style="
        fill: none;
        stroke: #0964af;
        stroke-width: 3.1215;
        stroke-linecap: round;
        stroke-linejoin: round;
        stroke-miterlimit: 10;
      "
      d="M214.281 170.025h24.945M295.205 177.977h18.967M214.281 177.977h72.705M214.281 185.93h99.891M282.421 193.883h31.751M214.281 193.883h60.237M247.412 170.025h66.76"
    />
  </g>
  <g style="opacity: 0.15">
    <path
      style="
        fill: none;
        stroke: #0964af;
        stroke-width: 3.1215;
        stroke-linecap: round;
        stroke-linejoin: round;
        stroke-miterlimit: 10;
      "
      d="M214.281 227.194h24.945M295.205 235.147h18.967M214.281 235.147h72.705M214.281 243.1h99.891M282.421 251.053h31.751M214.281 251.053h60.237M247.412 227.194h66.76"
    />
  </g>
  <g style="opacity: 0.15">
    <path
      style="
        fill: none;
        stroke: #0964af;
        stroke-width: 3.1215;
        stroke-linecap: round;
        stroke-linejoin: round;
        stroke-miterlimit: 10;
      "
      d="M214.281 282.364h24.945M295.205 290.317h18.967M214.281 290.317h72.705M214.281 298.27h99.891M282.421 306.222h31.751M214.281 306.222h60.237M247.412 282.364h66.76"
    />
  </g>
  <g style="opacity: 0.15">
    <path
      style="
        fill: none;
        stroke: #0964af;
        stroke-width: 3.1215;
        stroke-linecap: round;
        stroke-linejoin: round;
        stroke-miterlimit: 10;
      "
      d="M214.281 338.534h24.945M295.205 346.486h18.967M214.281 346.486h72.705M214.281 354.439h99.891M282.421 362.392h31.751M214.281 362.392h60.237M247.412 338.534h66.76"
    />
  </g>
  <path
    style="
      fill: none;
      stroke: #2396b5;
      stroke-width: 1.1566;
      stroke-miterlimit: 10;
    "
    d="M203.756 190.493h-18.665a2.102 2.102 0 0 1-2.102-2.102v-18.665c0-1.161.941-2.102 2.102-2.102h18.664c1.161 0 2.102.941 2.102 2.102v18.665a2.1 2.1 0 0 1-2.101 2.102zM203.756 247.477h-18.664a2.102 2.102 0 0 1-2.102-2.102V226.71c0-1.161.941-2.102 2.102-2.102h18.664c1.161 0 2.102.941 2.102 2.102v18.665a2.102 2.102 0 0 1-2.102 2.102zM203.756 304.461h-18.664a2.102 2.102 0 0 1-2.102-2.102v-18.664c0-1.161.941-2.102 2.102-2.102h18.664c1.161 0 2.102.941 2.102 2.102v18.664a2.102 2.102 0 0 1-2.102 2.102zM203.756 361.445h-18.665a2.102 2.102 0 0 1-2.102-2.102v-18.664c0-1.161.941-2.102 2.102-2.102h18.664c1.161 0 2.102.941 2.102 2.102v18.664a2.1 2.1 0 0 1-2.101 2.102z"
  />
  <path
    style="
      fill: none;
      stroke: #ffa829;
      stroke-width: 3.4699;
      stroke-linecap: round;
      stroke-linejoin: round;
      stroke-miterlimit: 10;
    "
    d="m185.804 175.033 8.62 10.41 16.585-26.169M185.804 231.543l8.62 10.41 16.585-26.169"
  />
  <path
    style="fill: #ffb392"
    d="M122.247 248.136s.43 2.854.702 3.103c0 0-.273.476-1.088.521"
  />
  <path
    style="opacity: 0.4; fill: #a1d7e5"
    d="M143.63 393.957c0 1.187-10.68 2.148-23.854 2.148s-23.854-.962-23.854-2.148c0-1.187 10.68-2.148 23.854-2.148s23.854.962 23.854 2.148z"
  />
  <path
    style="fill: #57c6f2"
    d="m130.674 261.459-5.272 23.156a1.108 1.108 0 0 0 .923 1.343l16.409 2.356a1.108 1.108 0 0 0 1.238-.851l5.272-23.156a1.108 1.108 0 0 0-.923-1.343l-16.409-2.356a1.108 1.108 0 0 0-1.238.851z"
  />
  <path
    style="fill: #e5f8ff"
    d="m131.701 262.206-5.048 22.17 16.293 2.34 5.047-22.171z"
  />
  <path
    style="
      fill: none;
      stroke: #a1d2f0;
      stroke-width: 0.5742;
      stroke-linecap: round;
      stroke-linejoin: round;
      stroke-miterlimit: 10;
    "
    d="m146.267 266.179-13.845-1.988M145.801 268.274l-13.845-1.988M140.037 270.011l-8.652-1.242M139.422 271.813l-8.652-1.243M138.807 273.614l-8.652-1.243M141.98 283.568l-8.653-1.243"
  />
  <path
    style="fill: #f2a181"
    d="M124.36 284.892c.929-.438 1.62-1.248 2.281-2.035l1.956-2.328c.257-.306.527-.641.556-1.04-1.093-.089-1.797 1.331-2.89 1.415a22.88 22.88 0 0 1 2.171-5.158c.227-.396.474-.857.313-1.284-1.181.451-2.176 1.291-3.037 2.218a16.211 16.211 0 0 0-1.646 2.093c-1.443 2.183-2.336 4.689-2.945 7.234"
  />
  <path
    style="fill: #ffbe9d"
    d="m119.656 303.543-11.716-9.885s-5.453 7.395-3.399 14.53c1.01 3.508 2.278 5.248 2.829 6.913.514 1.555 4.041 23.569 3.778 25.178-.263 1.61-2.157 6.113-2.879 10.849-.869 5.696-.722 24.253-1.396 29.174-.674 4.92 3.87 5.753 4.12 4.088 2.136-14.228 7.777-36.4 8.566-43.513.789-7.114.469-20.14.097-37.334z"
  />
  <path
    style="fill: #f2a181"
    d="m119.69 317.563-5.095 11.692c2.148 3.629 3.39 7.912 3.555 12.255.085 2.256-.113 4.516-.051 6.772.004.16.027.332.069.491.683-3.344 1.192-6.101 1.391-7.896.558-5.025.561-13.013.384-23.326-.085.003-.168-.001-.253.012z"
  />
  <path
    style="fill: #ffbe9d"
    d="M111.782 379.82s-1.091 5.163-.797 5.82c.294.658 1.349 2.57 2.43 3.262 1.134.725 3.646 1.588 3.847 1.902.201.315.214.773-.144 1.054-.925.727-2.531 1.081-3.581.908-3.406-.562-3.758-2.068-5.742-2.309-.342-.042-.977.465-1.925-.02-.948-.485-1.408-1.361-1.327-2.185.141-1.422.939-2.594 1.508-3.646.569-1.052.969-5.865.969-5.865"
  />
  <path
    style="fill: #1b227a"
    d="M117.383 392.107c.248-.425.312-1.068.08-1.225-.32-.218-1.46-.972-2.12-1.276-.661-.304-1.708-.572-1.339-.373.369.199-.31.945-.929.907-2.135-.131-3.709-1.549-4.925-1.854-1.755-.439-2.49-2.511-2.567-2.847-.332.211-1.104 1.879-1.26 2.404-.141.474-.395 1.341-.26 1.835.093.341.3 1.028.195 1.75 0 0 .346.266 1.262.455.58.12 1.358.02 1.358.02l.151-1.102s.478-.019 1.086.107c.608.126 1.6.704 1.659.775.244.291.439.821.761.984.853.43 1.713.635 2.8.698 2.288.133 3.624-.532 4.048-1.258z"
  />
  <path
    style="fill: #ffbe9d"
    d="M135.655 391.892c-.252-.278-2.966-.72-4.239-1.251-1.213-.507-2.682-2.136-2.968-2.827-.286-.691-.22-4.194-.184-5.665.254-10.131 2.126-34.889 2.397-40.818.471-10.305-.867-20.942-4.832-37.486l-14.764-11.331s-4.135 7.687-2.75 15.036c.803 4.264 4.34 4.92 4.938 6.577.598 1.657 9.531 28.376 9.531 28.376s-1.738 5.776-1.839 12.105c-.086 5.402 2.364 21.698 2.818 27.906.054 1.213.262 4.117-.095 5.042-.438 1.133-1.555 2.464-1.498 3.892.032.828.631 1.619 1.678 1.944 1.046.325 1.629-.28 1.989-.295 2.081-.086 2.658 1.345 6.252 1.344 1.108 0 2.715-.613 3.567-1.483.328-.336.25-.787-.001-1.066z"
  />
  <path
    style="fill: #1b227a"
    d="M135.964 393.161c.196-.461.17-1.106-.09-1.224-.361-.163-1.643-.723-2.368-.915-.725-.193-1.843-.286-1.434-.149.409.137-.187.985-.83 1.048-2.221.22-4.046-.926-5.344-1.027-1.873-.146-2.56-2.075-2.688-2.394-.313.263-1.237 2.038-1.325 2.583-.079.492-.218 1.39-.009 1.857.145.322.455.967.448 1.698 0 0 .394.206 1.366.243.615.024 1.405-.203 1.405-.203v-1.115s.49-.096 1.135-.072c.645.025 1.441.354 1.831.647.305.23.626.617.986.707 1.039.261 1.786.336 2.916.221 2.381-.242 3.666-1.118 4.001-1.905zM108.249 292.415c-1.002 1.1-4.573 7.051-4.611 11.894-.038 4.843 1.506 7.993 1.84 8.96.914 2.647 2.615 5.014 2.615 5.498s2.662.819 8.31.464c10.435-.657 14.269-2.615 14.269-2.615s.341-4.341-.729-13.76c-.508-4.473-4.317-11.556-4.317-11.556"
  />
  <path
    style="fill: #ffbe9d"
    d="M98.728 273.064s1.681 8.351 2.122 9.837c.441 1.486 2.622 10.922 4.688 10.758 2.067-.164 13.386-9.614 13.386-9.614l-1.603-3.206-9.963 4.75s-.9-10.786-1.69-13.355"
  />
  <path
    style="fill: #f2a181"
    d="M102.58 278.204c1.054 3.728 3.216 7.657 3.863 10.548.13.581 7.029-1.928 7.045-4.519"
  />
  <path
    style="fill: #e8505b"
    d="M105.478 261.489s-3.304.352-4.979 1.634c-4.272 3.268-.966 15.133-.966 15.133s-.211.633 2.657.472c2.868-.161 5.167-.977 5.167-.977l-.829-9.721"
  />
  <path
    style="fill: #b03d44"
    d="M101.696 268.206s-.362 6.975.9 10.495c1.249-.025 2.34-.307 2.34-.307l-3.24-10.188z"
  />
  <path
    style="fill: #ffbe9d"
    d="M121.268 239.599c1.991 2.581 1.597 6.212 1.106 9.434l-.745 4.888c-.118.774-.275 1.62-.878 2.119-.608.504-1.478.495-2.266.461l.024 4.046c-2.307.056-4.615.065-6.922.028a6.66 6.66 0 0 0-.599-2.747c-1.129-.022-1.883-1.154-2.325-2.193-.51-1.198-.881-2.45-1.239-3.701-.476-1.661-.935-3.348-.978-5.076-.044-1.727.367-3.523 1.464-4.858.748-.91 1.768-1.556 2.812-2.101 1.431-.747 3.15-1.336 4.626-.682"
  />
  <path
    style="fill: #1b227a"
    d="M118.881 251.896c-.273-1.356-.253-2.12.191-3.023.147-.299.341-.581.606-.767a1.28 1.28 0 0 1 1.233-.128c.259.113.473.324.62.578.471-1.821.569-3.762.433-5.653-.215-2.999-2.023-5.317-4.663-6.402-4.887-2.008-11.909-.024-13.893 4.773-1.499 3.623-.739 8.853 2.131 11.89 2.541 2.689 6.195 3.084 9.568 2.53 1.726-.283 4.389-.113 5.282-2.46.069-.181-.086-.362-.27-.348-.701.054-1.188-.739-1.238-.99z"
  />
  <path
    style="fill: #1b227a"
    d="M119.256 245.517c.182.285.139.667.309.959.286.489.667.666 1.181.905.829.385.635 1.592.611 2.132.626-.416.727-1.549.878-2.124.17-.646.278-1.309.466-1.95.183-.623.5-1.211.559-1.867.203-2.266-1.219-4.929-2.937-6.201-1.251-.926-3.16-.888-4.573.054-.595.397-1.042.996-1.306 1.661-.113.285-.191.618-.051.891"
  />
  <path
    style="fill: #b03d44"
    d="M108.15 261.519c.117-.79.331-1.711 1.066-2.023.204-.086.428-.113.649-.138a53.897 53.897 0 0 1 6.781-.32c.937.015 1.906.063 2.744.481 1.314.657 2.037 2.073 2.672 3.398"
  />
  <path
    style="fill: #e8505b"
    d="M127.218 290.474c-.315-.466-1.041-1.022-1.302-1.535-.625-1.229-1.172-6.406-.957-7.728.23-1.418 1.485-2.18 2.051-5.335.729-4.064-.937-7.223-1.869-8.576-1.317-1.913-.536-1.902-.987-4.246-.081-.422-.176-.873-.465-1.167-.285-.29-2.248-1.187-2.633-1.247-3.66-.567-5.812-.124-9.512.038-1.83.08-3.658.294-5.455.69-1.989.439-3.722.966-4.131 3.665-.633 4.175-.101 8.395 1.168 12.355.841 2.624 5.864 11.704 4.619 13.461-.284.402-.996 1.164-1.082 1.665-.315 1.835 3.831 2.48 5.606 2.626 2.703.222 5.806.073 8.516-.054 2.053-.096 6.544-.813 6.863-3.349.062-.497-.184-.899-.43-1.263z"
  />
  <path
    style="fill: #b03d44"
    d="M126.437 276.662c.001.738-.412 1.728-.545 2.117-.515.265-2.557.704-3.729.169-.257-2.439-1.686-7.135-1.686-7.135s5.959 4.166 5.96 4.849z"
  />
  <path
    style="fill: #ffbe9d"
    d="M123.815 274.96s6.761 16.339 9.695 16.339c2.134 0 7.366-15.083 7.366-15.083l-3.306-1.565-3.687 6.317-3.733-11.782"
  />
  <path
    style="fill: #ffbe9d"
    d="M136.913 275.776s1.096-1.726 1.016-2.95c-.031-.467-.308-2.688-.076-3.125.232-.437.788-1.866 1.105-2.144.318-.278 1.492-.725 1.779-.526.287.199.645-.715 1.121-.635.476.079.873.476.873.913 0 .437.635.516.715.834.079.318.04.596.159.834s.47.12.596.715c.115.544-.04.596 0 .873.04.278.278.252.199.781-.079.529-.442 1.216-.759 1.811-.318.595-.974 1.341-1.844 1.867-.43.26-.665.714-1.075 1.485"
  />
  <path
    style="fill: #1b227a"
    d="M138.73 263.15c-.084-.13-.314-.348-.583-.158-.27.19-.188.517-.13.649l1.999 4.524s.162.186.471-.086c.336-.296.228-.444.228-.444s-1.902-4.355-1.985-4.485z"
  />
  <path
    style="fill: #f2a181"
    d="M140.836 267.345c-.381.679-.821.897-1.219 1.271-.311.293-.273.481-.615.782.601-.045.498-.4 1.278-.962.361-.26.734-.543.805-.986.024-.153-.157-.235-.249-.105z"
  />
  <path
    style="fill: #e8505b"
    d="M117.596 260.389c1.761.091 6.887-.808 9.735 2.172 2.386 2.496 3.754 9.04 4.714 11.694-2.391 2.437-4.694 4.402-8.316 3.611-.137-.102-1.934-5.758-3.242-6.261"
  />
  <path
    style="fill: #1b227a"
    d="M130.681 312.274s1.163 27.954.951 29.992c-.212 2.038-2.48 40.633-2.48 40.633s-4.657.815-7.446 0c0 0-3.598-30.056 0-39.421l-1.599-8.974s.239 6.675 0 8.034c-.238 1.359-7.435 39.41-7.435 39.41s-4.762-.127-6.936-2.034c0 0-.678-26.437 4.282-37.557l-4.539-29.089 2.615-7.402 22.587 6.408z"
  />
  <path
    style="fill: #170d54"
    d="M120.107 334.504c-.665-4.299-4.767-19.548-4.942-19.915-2.243-1.738-4.292-3.27-5.038-4.719 1.225 3.677 3.585 3.867 4.468 5.77 2.181 4.698.515 3.662 5.608 19.403"
  />
  <path
    style="fill: #1b227a"
    d="M100.078 260.203c-.105 1.487.199 2.973.223 4.464.024 1.491-.296 3.099-1.391 4.111-1.095 1.012-3.127 1.052-3.905-.22.787 1.644 2.482 2.75 4.276 3.076 1.793.326 3.664-.061 5.321-.82 4.404-2.018 7.337-6.633 7.2-11.488-.112-3.991-3.143-7.848-7.376-5.75-2.481 1.23-4.154 3.886-4.348 6.627z"
  />
</svg>
